<mxfile host="Electron" agent="Mozilla/5.0 (Windows NT 10.0; Win64; x64) AppleWebKit/537.36 (KHTML, like Gecko) draw.io/24.7.5 Chrome/126.0.6478.183 Electron/31.3.0 Safari/537.36" version="24.7.5">
  <diagram name="Page-1" id="58cdce13-f638-feb5-8d6f-7d28b1aa9fa0">
    <mxGraphModel dx="1118" dy="667" grid="1" gridSize="10" guides="1" tooltips="1" connect="1" arrows="1" fold="1" page="1" pageScale="1" pageWidth="1100" pageHeight="850" background="none" math="0" shadow="0">
      <root>
        <mxCell id="0" />
        <mxCell id="1" parent="0" />
        <mxCell id="7sJPHcxp8LxkouLE9m6g-2" value="" style="ellipse;html=1;shape=startState;fillColor=#000000;strokeColor=#ff0000;" parent="1" vertex="1">
          <mxGeometry x="139" y="340" width="30" height="30" as="geometry" />
        </mxCell>
        <mxCell id="7sJPHcxp8LxkouLE9m6g-3" value="" style="html=1;verticalAlign=bottom;endArrow=block;endSize=8;strokeColor=#ff0000;rounded=0;endFill=1;" parent="1" source="7sJPHcxp8LxkouLE9m6g-2" target="7sJPHcxp8LxkouLE9m6g-6" edge="1">
          <mxGeometry relative="1" as="geometry">
            <mxPoint x="149" y="310" as="targetPoint" />
          </mxGeometry>
        </mxCell>
        <mxCell id="7sJPHcxp8LxkouLE9m6g-9" style="rounded=0;orthogonalLoop=1;jettySize=auto;html=1;" parent="1" source="7sJPHcxp8LxkouLE9m6g-6" target="7sJPHcxp8LxkouLE9m6g-8" edge="1">
          <mxGeometry relative="1" as="geometry" />
        </mxCell>
        <mxCell id="7sJPHcxp8LxkouLE9m6g-10" value="[-]" style="edgeLabel;html=1;align=center;verticalAlign=middle;resizable=0;points=[];" parent="7sJPHcxp8LxkouLE9m6g-9" vertex="1" connectable="0">
          <mxGeometry x="-0.1231" y="1" relative="1" as="geometry">
            <mxPoint as="offset" />
          </mxGeometry>
        </mxCell>
        <mxCell id="7sJPHcxp8LxkouLE9m6g-13" style="rounded=0;orthogonalLoop=1;jettySize=auto;html=1;" parent="1" source="7sJPHcxp8LxkouLE9m6g-6" target="7sJPHcxp8LxkouLE9m6g-12" edge="1">
          <mxGeometry relative="1" as="geometry" />
        </mxCell>
        <mxCell id="7sJPHcxp8LxkouLE9m6g-14" value="[0]" style="edgeLabel;html=1;align=center;verticalAlign=middle;resizable=0;points=[];" parent="7sJPHcxp8LxkouLE9m6g-13" vertex="1" connectable="0">
          <mxGeometry x="-0.0956" relative="1" as="geometry">
            <mxPoint as="offset" />
          </mxGeometry>
        </mxCell>
        <mxCell id="7sJPHcxp8LxkouLE9m6g-92" style="rounded=0;orthogonalLoop=1;jettySize=auto;html=1;" parent="1" source="7sJPHcxp8LxkouLE9m6g-6" target="7sJPHcxp8LxkouLE9m6g-24" edge="1">
          <mxGeometry relative="1" as="geometry">
            <mxPoint x="198.68158861962524" y="308.07889406392974" as="sourcePoint" />
            <mxPoint x="379.0014477332734" y="326.89181747221596" as="targetPoint" />
          </mxGeometry>
        </mxCell>
        <mxCell id="7sJPHcxp8LxkouLE9m6g-93" value="[1-9]" style="edgeLabel;html=1;align=center;verticalAlign=middle;resizable=0;points=[];" parent="7sJPHcxp8LxkouLE9m6g-92" vertex="1" connectable="0">
          <mxGeometry x="-0.3023" y="-3" relative="1" as="geometry">
            <mxPoint x="9" y="-18" as="offset" />
          </mxGeometry>
        </mxCell>
        <mxCell id="7sJPHcxp8LxkouLE9m6g-6" value="S&lt;span style=&quot;font-size: 10px;&quot;&gt;0&lt;/span&gt;" style="shape=ellipse;html=1;dashed=0;whiteSpace=wrap;aspect=fixed;perimeter=ellipsePerimeter;fillColor=#1ba1e2;fontColor=#ffffff;strokeColor=#006EAF;" parent="1" vertex="1">
          <mxGeometry x="192" y="385" width="60" height="60" as="geometry" />
        </mxCell>
        <mxCell id="7sJPHcxp8LxkouLE9m6g-19" style="rounded=0;orthogonalLoop=1;jettySize=auto;html=1;" parent="1" source="7sJPHcxp8LxkouLE9m6g-8" target="7sJPHcxp8LxkouLE9m6g-12" edge="1">
          <mxGeometry relative="1" as="geometry" />
        </mxCell>
        <mxCell id="7sJPHcxp8LxkouLE9m6g-20" value="[0]" style="edgeLabel;html=1;align=center;verticalAlign=middle;resizable=0;points=[];" parent="7sJPHcxp8LxkouLE9m6g-19" vertex="1" connectable="0">
          <mxGeometry x="-0.26" y="-1" relative="1" as="geometry">
            <mxPoint x="-7" y="-5" as="offset" />
          </mxGeometry>
        </mxCell>
        <mxCell id="7sJPHcxp8LxkouLE9m6g-26" style="rounded=0;orthogonalLoop=1;jettySize=auto;html=1;" parent="1" source="7sJPHcxp8LxkouLE9m6g-8" target="7sJPHcxp8LxkouLE9m6g-24" edge="1">
          <mxGeometry relative="1" as="geometry" />
        </mxCell>
        <mxCell id="7sJPHcxp8LxkouLE9m6g-27" value="[1-9]" style="edgeLabel;html=1;align=center;verticalAlign=middle;resizable=0;points=[];" parent="7sJPHcxp8LxkouLE9m6g-26" vertex="1" connectable="0">
          <mxGeometry x="-0.112" relative="1" as="geometry">
            <mxPoint as="offset" />
          </mxGeometry>
        </mxCell>
        <mxCell id="7sJPHcxp8LxkouLE9m6g-8" value="S&lt;span style=&quot;font-size: 10px;&quot;&gt;2&lt;/span&gt;" style="shape=ellipse;html=1;dashed=0;whiteSpace=wrap;aspect=fixed;perimeter=ellipsePerimeter;fillColor=#1ba1e2;fontColor=#ffffff;strokeColor=#006EAF;" parent="1" vertex="1">
          <mxGeometry x="282" y="465" width="60" height="60" as="geometry" />
        </mxCell>
        <mxCell id="7sJPHcxp8LxkouLE9m6g-22" style="rounded=0;orthogonalLoop=1;jettySize=auto;html=1;" parent="1" source="7sJPHcxp8LxkouLE9m6g-12" target="7sJPHcxp8LxkouLE9m6g-21" edge="1">
          <mxGeometry relative="1" as="geometry" />
        </mxCell>
        <mxCell id="7sJPHcxp8LxkouLE9m6g-23" value="[.]" style="edgeLabel;html=1;align=center;verticalAlign=middle;resizable=0;points=[];" parent="7sJPHcxp8LxkouLE9m6g-22" vertex="1" connectable="0">
          <mxGeometry x="0.0677" y="1" relative="1" as="geometry">
            <mxPoint x="-8" y="-3" as="offset" />
          </mxGeometry>
        </mxCell>
        <mxCell id="7sJPHcxp8LxkouLE9m6g-104" style="rounded=0;orthogonalLoop=1;jettySize=auto;html=1;" parent="1" source="7sJPHcxp8LxkouLE9m6g-12" target="7sJPHcxp8LxkouLE9m6g-35" edge="1">
          <mxGeometry relative="1" as="geometry" />
        </mxCell>
        <mxCell id="7sJPHcxp8LxkouLE9m6g-105" value="&lt;span style=&quot;color: rgba(0, 0, 0, 0); font-family: monospace; font-size: 0px; text-align: start; background-color: rgb(251, 251, 251);&quot;&gt;%3CmxGraphModel%3E%3Croot%3E%3CmxCell%20id%3D%220%22%2F%3E%3CmxCell%20id%3D%221%22%20parent%3D%220%22%2F%3E%3CmxCell%20id%3D%222%22%20value%3D%22%5B-%2C%2B%2C*%2C%2F%5D%22%20style%3D%22edgeLabel%3Bhtml%3D1%3Balign%3Dcenter%3BverticalAlign%3Dmiddle%3Bresizable%3D0%3Bpoints%3D%5B%5D%3B%22%20vertex%3D%221%22%20connectable%3D%220%22%20parent%3D%221%22%3E%3CmxGeometry%20x%3D%22732.791727669412%22%20y%3D%22405.4151625135054%22%20as%3D%22geometry%22%2F%3E%3C%2FmxCell%3E%3C%2Froot%3E%3C%2FmxGraphModel%3E&lt;/span&gt;" style="edgeLabel;html=1;align=center;verticalAlign=middle;resizable=0;points=[];" parent="7sJPHcxp8LxkouLE9m6g-104" vertex="1" connectable="0">
          <mxGeometry x="-0.2116" y="-3" relative="1" as="geometry">
            <mxPoint as="offset" />
          </mxGeometry>
        </mxCell>
        <mxCell id="7sJPHcxp8LxkouLE9m6g-106" value="[+,-,*,/]" style="edgeLabel;html=1;align=center;verticalAlign=middle;resizable=0;points=[];" parent="7sJPHcxp8LxkouLE9m6g-104" vertex="1" connectable="0">
          <mxGeometry x="-0.2488" relative="1" as="geometry">
            <mxPoint x="43" y="-1" as="offset" />
          </mxGeometry>
        </mxCell>
        <mxCell id="7sJPHcxp8LxkouLE9m6g-12" value="S&lt;span style=&quot;font-size: 10px;&quot;&gt;1&lt;/span&gt;" style="shape=ellipse;html=1;dashed=0;whiteSpace=wrap;aspect=fixed;perimeter=ellipsePerimeter;fillColor=#1ba1e2;fontColor=#ffffff;strokeColor=#006EAF;" parent="1" vertex="1">
          <mxGeometry x="79" y="505" width="60" height="60" as="geometry" />
        </mxCell>
        <mxCell id="7sJPHcxp8LxkouLE9m6g-37" style="rounded=0;orthogonalLoop=1;jettySize=auto;html=1;" parent="1" source="7sJPHcxp8LxkouLE9m6g-79" target="7sJPHcxp8LxkouLE9m6g-35" edge="1">
          <mxGeometry relative="1" as="geometry" />
        </mxCell>
        <mxCell id="7sJPHcxp8LxkouLE9m6g-39" value="[+,-,*,/]" style="edgeLabel;html=1;align=center;verticalAlign=middle;resizable=0;points=[];" parent="7sJPHcxp8LxkouLE9m6g-37" vertex="1" connectable="0">
          <mxGeometry x="0.193" relative="1" as="geometry">
            <mxPoint x="-2" y="-26" as="offset" />
          </mxGeometry>
        </mxCell>
        <mxCell id="7sJPHcxp8LxkouLE9m6g-80" style="rounded=0;orthogonalLoop=1;jettySize=auto;html=1;" parent="1" source="7sJPHcxp8LxkouLE9m6g-21" target="7sJPHcxp8LxkouLE9m6g-79" edge="1">
          <mxGeometry relative="1" as="geometry" />
        </mxCell>
        <mxCell id="7sJPHcxp8LxkouLE9m6g-81" value="[0-9]" style="edgeLabel;html=1;align=center;verticalAlign=middle;resizable=0;points=[];" parent="7sJPHcxp8LxkouLE9m6g-80" vertex="1" connectable="0">
          <mxGeometry x="-0.3292" y="2" relative="1" as="geometry">
            <mxPoint x="57" y="-3" as="offset" />
          </mxGeometry>
        </mxCell>
        <mxCell id="7sJPHcxp8LxkouLE9m6g-21" value="S&lt;span style=&quot;font-size: 10px;&quot;&gt;3&lt;/span&gt;" style="shape=ellipse;html=1;dashed=0;whiteSpace=wrap;aspect=fixed;perimeter=ellipsePerimeter;fillColor=#1ba1e2;fontColor=#ffffff;strokeColor=#006EAF;" parent="1" vertex="1">
          <mxGeometry x="79" y="280" width="60" height="60" as="geometry" />
        </mxCell>
        <mxCell id="7sJPHcxp8LxkouLE9m6g-31" style="rounded=0;orthogonalLoop=1;jettySize=auto;html=1;" parent="1" source="7sJPHcxp8LxkouLE9m6g-24" target="7sJPHcxp8LxkouLE9m6g-21" edge="1">
          <mxGeometry relative="1" as="geometry" />
        </mxCell>
        <mxCell id="7sJPHcxp8LxkouLE9m6g-32" value="[.]" style="edgeLabel;html=1;align=center;verticalAlign=middle;resizable=0;points=[];" parent="7sJPHcxp8LxkouLE9m6g-31" vertex="1" connectable="0">
          <mxGeometry x="-0.1745" y="1" relative="1" as="geometry">
            <mxPoint x="-1" y="-3" as="offset" />
          </mxGeometry>
        </mxCell>
        <mxCell id="7sJPHcxp8LxkouLE9m6g-36" style="rounded=0;orthogonalLoop=1;jettySize=auto;html=1;" parent="1" source="7sJPHcxp8LxkouLE9m6g-24" target="7sJPHcxp8LxkouLE9m6g-35" edge="1">
          <mxGeometry relative="1" as="geometry" />
        </mxCell>
        <mxCell id="7sJPHcxp8LxkouLE9m6g-38" value="[+,-,*,/]" style="edgeLabel;html=1;align=center;verticalAlign=middle;resizable=0;points=[];" parent="7sJPHcxp8LxkouLE9m6g-36" vertex="1" connectable="0">
          <mxGeometry x="-0.0272" relative="1" as="geometry">
            <mxPoint y="-6" as="offset" />
          </mxGeometry>
        </mxCell>
        <mxCell id="7sJPHcxp8LxkouLE9m6g-24" value="S&lt;span style=&quot;font-size: 10px;&quot;&gt;4&lt;/span&gt;" style="shape=ellipse;html=1;dashed=0;whiteSpace=wrap;aspect=fixed;perimeter=ellipsePerimeter;fillColor=#1ba1e2;fontColor=#ffffff;strokeColor=#006EAF;" parent="1" vertex="1">
          <mxGeometry x="322" y="345" width="60" height="60" as="geometry" />
        </mxCell>
        <mxCell id="7sJPHcxp8LxkouLE9m6g-29" style="edgeStyle=orthogonalEdgeStyle;rounded=0;orthogonalLoop=1;jettySize=auto;html=1;elbow=horizontal;" parent="1" source="7sJPHcxp8LxkouLE9m6g-24" target="7sJPHcxp8LxkouLE9m6g-24" edge="1">
          <mxGeometry relative="1" as="geometry" />
        </mxCell>
        <mxCell id="7sJPHcxp8LxkouLE9m6g-30" value="[0-9]" style="edgeLabel;html=1;align=center;verticalAlign=middle;resizable=0;points=[];" parent="7sJPHcxp8LxkouLE9m6g-29" vertex="1" connectable="0">
          <mxGeometry x="-0.1663" y="1" relative="1" as="geometry">
            <mxPoint x="19" y="5" as="offset" />
          </mxGeometry>
        </mxCell>
        <mxCell id="7sJPHcxp8LxkouLE9m6g-45" style="rounded=0;orthogonalLoop=1;jettySize=auto;html=1;" parent="1" source="7sJPHcxp8LxkouLE9m6g-35" target="7sJPHcxp8LxkouLE9m6g-44" edge="1">
          <mxGeometry relative="1" as="geometry" />
        </mxCell>
        <mxCell id="7sJPHcxp8LxkouLE9m6g-48" value="[-]" style="edgeLabel;html=1;align=center;verticalAlign=middle;resizable=0;points=[];" parent="7sJPHcxp8LxkouLE9m6g-45" vertex="1" connectable="0">
          <mxGeometry x="0.0859" y="2" relative="1" as="geometry">
            <mxPoint x="-3" y="-1" as="offset" />
          </mxGeometry>
        </mxCell>
        <mxCell id="7sJPHcxp8LxkouLE9m6g-47" style="rounded=0;orthogonalLoop=1;jettySize=auto;html=1;" parent="1" source="7sJPHcxp8LxkouLE9m6g-35" target="7sJPHcxp8LxkouLE9m6g-46" edge="1">
          <mxGeometry relative="1" as="geometry" />
        </mxCell>
        <mxCell id="7sJPHcxp8LxkouLE9m6g-49" value="[0]" style="edgeLabel;html=1;align=center;verticalAlign=middle;resizable=0;points=[];" parent="7sJPHcxp8LxkouLE9m6g-47" vertex="1" connectable="0">
          <mxGeometry x="-0.1175" relative="1" as="geometry">
            <mxPoint x="3" y="-5" as="offset" />
          </mxGeometry>
        </mxCell>
        <mxCell id="7sJPHcxp8LxkouLE9m6g-99" style="rounded=0;orthogonalLoop=1;jettySize=auto;html=1;" parent="1" source="7sJPHcxp8LxkouLE9m6g-35" target="7sJPHcxp8LxkouLE9m6g-62" edge="1">
          <mxGeometry relative="1" as="geometry" />
        </mxCell>
        <mxCell id="7sJPHcxp8LxkouLE9m6g-100" value="[1-9]" style="edgeLabel;html=1;align=center;verticalAlign=middle;resizable=0;points=[];" parent="7sJPHcxp8LxkouLE9m6g-99" vertex="1" connectable="0">
          <mxGeometry x="0.3111" y="1" relative="1" as="geometry">
            <mxPoint x="-46" as="offset" />
          </mxGeometry>
        </mxCell>
        <mxCell id="7sJPHcxp8LxkouLE9m6g-35" value="S&lt;span style=&quot;font-size: 10px;&quot;&gt;6&lt;/span&gt;" style="shape=ellipse;html=1;dashed=0;whiteSpace=wrap;aspect=fixed;perimeter=ellipsePerimeter;fillColor=#e51400;fontColor=#ffffff;strokeColor=#B20000;" parent="1" vertex="1">
          <mxGeometry x="484" y="510" width="60" height="60" as="geometry" />
        </mxCell>
        <mxCell id="7sJPHcxp8LxkouLE9m6g-58" style="rounded=0;orthogonalLoop=1;jettySize=auto;html=1;" parent="1" source="7sJPHcxp8LxkouLE9m6g-44" target="7sJPHcxp8LxkouLE9m6g-46" edge="1">
          <mxGeometry relative="1" as="geometry" />
        </mxCell>
        <mxCell id="7sJPHcxp8LxkouLE9m6g-59" value="[0]" style="edgeLabel;html=1;align=center;verticalAlign=middle;resizable=0;points=[];" parent="7sJPHcxp8LxkouLE9m6g-58" vertex="1" connectable="0">
          <mxGeometry x="-0.1646" y="2" relative="1" as="geometry">
            <mxPoint x="-1" y="1" as="offset" />
          </mxGeometry>
        </mxCell>
        <mxCell id="7sJPHcxp8LxkouLE9m6g-63" style="rounded=0;orthogonalLoop=1;jettySize=auto;html=1;" parent="1" source="7sJPHcxp8LxkouLE9m6g-44" target="7sJPHcxp8LxkouLE9m6g-62" edge="1">
          <mxGeometry relative="1" as="geometry" />
        </mxCell>
        <mxCell id="7sJPHcxp8LxkouLE9m6g-64" value="[1-9]" style="edgeLabel;html=1;align=center;verticalAlign=middle;resizable=0;points=[];" parent="7sJPHcxp8LxkouLE9m6g-63" vertex="1" connectable="0">
          <mxGeometry x="0.3742" y="2" relative="1" as="geometry">
            <mxPoint x="-86" y="-12" as="offset" />
          </mxGeometry>
        </mxCell>
        <mxCell id="7sJPHcxp8LxkouLE9m6g-44" value="S&lt;span style=&quot;font-size: 10px;&quot;&gt;8&lt;/span&gt;" style="shape=ellipse;html=1;dashed=0;whiteSpace=wrap;aspect=fixed;perimeter=ellipsePerimeter;" parent="1" vertex="1">
          <mxGeometry x="642" y="450" width="60" height="60" as="geometry" />
        </mxCell>
        <mxCell id="7sJPHcxp8LxkouLE9m6g-51" style="rounded=0;orthogonalLoop=1;jettySize=auto;html=1;" parent="1" source="7sJPHcxp8LxkouLE9m6g-46" target="7sJPHcxp8LxkouLE9m6g-85" edge="1">
          <mxGeometry relative="1" as="geometry" />
        </mxCell>
        <mxCell id="7sJPHcxp8LxkouLE9m6g-52" value="[.]" style="edgeLabel;html=1;align=center;verticalAlign=middle;resizable=0;points=[];" parent="7sJPHcxp8LxkouLE9m6g-51" vertex="1" connectable="0">
          <mxGeometry x="0.2087" y="2" relative="1" as="geometry">
            <mxPoint x="-27" y="-3" as="offset" />
          </mxGeometry>
        </mxCell>
        <mxCell id="7sJPHcxp8LxkouLE9m6g-46" value="S&lt;span style=&quot;font-size: 10px;&quot;&gt;7&lt;/span&gt;" style="shape=ellipse;html=1;dashed=0;whiteSpace=wrap;aspect=fixed;perimeter=ellipsePerimeter;" parent="1" vertex="1">
          <mxGeometry x="672" y="280" width="60" height="60" as="geometry" />
        </mxCell>
        <mxCell id="7sJPHcxp8LxkouLE9m6g-50" value="S&lt;span style=&quot;font-size: 10px;&quot;&gt;11&lt;/span&gt;" style="shape=ellipse;html=1;dashed=0;whiteSpace=wrap;aspect=fixed;perimeter=ellipsePerimeter;" parent="1" vertex="1">
          <mxGeometry x="822" y="345" width="60" height="60" as="geometry" />
        </mxCell>
        <mxCell id="7sJPHcxp8LxkouLE9m6g-67" style="rounded=0;orthogonalLoop=1;jettySize=auto;html=1;" parent="1" source="7sJPHcxp8LxkouLE9m6g-62" target="7sJPHcxp8LxkouLE9m6g-85" edge="1">
          <mxGeometry relative="1" as="geometry" />
        </mxCell>
        <mxCell id="7sJPHcxp8LxkouLE9m6g-68" value="[.]" style="edgeLabel;html=1;align=center;verticalAlign=middle;resizable=0;points=[];" parent="7sJPHcxp8LxkouLE9m6g-67" vertex="1" connectable="0">
          <mxGeometry x="-0.491" relative="1" as="geometry">
            <mxPoint y="-43" as="offset" />
          </mxGeometry>
        </mxCell>
        <mxCell id="7sJPHcxp8LxkouLE9m6g-72" style="rounded=0;orthogonalLoop=1;jettySize=auto;html=1;" parent="1" source="7sJPHcxp8LxkouLE9m6g-62" target="7sJPHcxp8LxkouLE9m6g-76" edge="1">
          <mxGeometry relative="1" as="geometry" />
        </mxCell>
        <mxCell id="7sJPHcxp8LxkouLE9m6g-74" value="[+,-,*,/]" style="edgeLabel;html=1;align=center;verticalAlign=middle;resizable=0;points=[];" parent="7sJPHcxp8LxkouLE9m6g-72" vertex="1" connectable="0">
          <mxGeometry x="-0.3515" y="1" relative="1" as="geometry">
            <mxPoint x="-33" y="-18" as="offset" />
          </mxGeometry>
        </mxCell>
        <mxCell id="7sJPHcxp8LxkouLE9m6g-62" value="S&lt;span style=&quot;font-size: 10px;&quot;&gt;9&lt;/span&gt;" style="shape=ellipse;html=1;dashed=0;whiteSpace=wrap;aspect=fixed;perimeter=ellipsePerimeter;" parent="1" vertex="1">
          <mxGeometry x="942" y="510" width="60" height="60" as="geometry" />
        </mxCell>
        <mxCell id="7sJPHcxp8LxkouLE9m6g-65" style="edgeStyle=orthogonalEdgeStyle;rounded=0;orthogonalLoop=1;jettySize=auto;html=1;" parent="1" source="7sJPHcxp8LxkouLE9m6g-62" target="7sJPHcxp8LxkouLE9m6g-62" edge="1">
          <mxGeometry relative="1" as="geometry" />
        </mxCell>
        <mxCell id="7sJPHcxp8LxkouLE9m6g-66" value="[0-9]" style="edgeLabel;html=1;align=center;verticalAlign=middle;resizable=0;points=[];" parent="7sJPHcxp8LxkouLE9m6g-65" vertex="1" connectable="0">
          <mxGeometry x="0.2478" y="2" relative="1" as="geometry">
            <mxPoint x="18" y="-8" as="offset" />
          </mxGeometry>
        </mxCell>
        <mxCell id="7sJPHcxp8LxkouLE9m6g-70" style="rounded=0;orthogonalLoop=1;jettySize=auto;html=1;" parent="1" source="7sJPHcxp8LxkouLE9m6g-50" target="7sJPHcxp8LxkouLE9m6g-76" edge="1">
          <mxGeometry relative="1" as="geometry" />
        </mxCell>
        <mxCell id="7sJPHcxp8LxkouLE9m6g-75" value="[+,-,*,/]" style="edgeLabel;html=1;align=center;verticalAlign=middle;resizable=0;points=[];" parent="7sJPHcxp8LxkouLE9m6g-70" vertex="1" connectable="0">
          <mxGeometry x="-0.4833" y="2" relative="1" as="geometry">
            <mxPoint x="-10" y="5" as="offset" />
          </mxGeometry>
        </mxCell>
        <mxCell id="7sJPHcxp8LxkouLE9m6g-76" value="" style="ellipse;html=1;shape=endState;fillColor=strokeColor;" parent="1" vertex="1">
          <mxGeometry x="732" y="415" width="30" height="30" as="geometry" />
        </mxCell>
        <mxCell id="7sJPHcxp8LxkouLE9m6g-79" value="S&lt;span style=&quot;font-size: 10px;&quot;&gt;5&lt;/span&gt;" style="shape=ellipse;html=1;dashed=0;whiteSpace=wrap;aspect=fixed;perimeter=ellipsePerimeter;fillColor=#1ba1e2;fontColor=#ffffff;strokeColor=#006EAF;" parent="1" vertex="1">
          <mxGeometry x="484" y="280" width="60" height="60" as="geometry" />
        </mxCell>
        <mxCell id="7sJPHcxp8LxkouLE9m6g-86" style="rounded=0;orthogonalLoop=1;jettySize=auto;html=1;" parent="1" source="7sJPHcxp8LxkouLE9m6g-85" target="7sJPHcxp8LxkouLE9m6g-50" edge="1">
          <mxGeometry relative="1" as="geometry" />
        </mxCell>
        <mxCell id="7sJPHcxp8LxkouLE9m6g-87" value="[0-9]" style="edgeLabel;html=1;align=center;verticalAlign=middle;resizable=0;points=[];" parent="7sJPHcxp8LxkouLE9m6g-86" vertex="1" connectable="0">
          <mxGeometry x="-0.4701" y="-1" relative="1" as="geometry">
            <mxPoint x="-13" y="9" as="offset" />
          </mxGeometry>
        </mxCell>
        <mxCell id="7sJPHcxp8LxkouLE9m6g-85" value="S&lt;span style=&quot;font-size: 10px;&quot;&gt;10&lt;/span&gt;" style="shape=ellipse;html=1;dashed=0;whiteSpace=wrap;aspect=fixed;perimeter=ellipsePerimeter;" parent="1" vertex="1">
          <mxGeometry x="942" y="280" width="60" height="60" as="geometry" />
        </mxCell>
        <mxCell id="7sJPHcxp8LxkouLE9m6g-88" style="edgeStyle=orthogonalEdgeStyle;rounded=0;orthogonalLoop=1;jettySize=auto;html=1;" parent="1" source="7sJPHcxp8LxkouLE9m6g-50" target="7sJPHcxp8LxkouLE9m6g-50" edge="1">
          <mxGeometry relative="1" as="geometry" />
        </mxCell>
        <mxCell id="7sJPHcxp8LxkouLE9m6g-89" value="[0-9]" style="edgeLabel;html=1;align=center;verticalAlign=middle;resizable=0;points=[];" parent="7sJPHcxp8LxkouLE9m6g-88" vertex="1" connectable="0">
          <mxGeometry x="-0.2837" y="1" relative="1" as="geometry">
            <mxPoint x="19" y="9" as="offset" />
          </mxGeometry>
        </mxCell>
        <mxCell id="7sJPHcxp8LxkouLE9m6g-102" style="edgeStyle=orthogonalEdgeStyle;rounded=0;orthogonalLoop=1;jettySize=auto;html=1;" parent="1" source="7sJPHcxp8LxkouLE9m6g-79" target="7sJPHcxp8LxkouLE9m6g-79" edge="1">
          <mxGeometry relative="1" as="geometry" />
        </mxCell>
        <mxCell id="7sJPHcxp8LxkouLE9m6g-103" value="[0-9]" style="edgeLabel;html=1;align=center;verticalAlign=middle;resizable=0;points=[];" parent="7sJPHcxp8LxkouLE9m6g-102" vertex="1" connectable="0">
          <mxGeometry x="0.3308" relative="1" as="geometry">
            <mxPoint x="20" y="-10" as="offset" />
          </mxGeometry>
        </mxCell>
        <mxCell id="7sJPHcxp8LxkouLE9m6g-108" style="rounded=0;orthogonalLoop=1;jettySize=auto;html=1;" parent="1" source="7sJPHcxp8LxkouLE9m6g-46" target="7sJPHcxp8LxkouLE9m6g-76" edge="1">
          <mxGeometry relative="1" as="geometry" />
        </mxCell>
        <mxCell id="7sJPHcxp8LxkouLE9m6g-109" value="[+,-,*,/]" style="edgeLabel;html=1;align=center;verticalAlign=middle;resizable=0;points=[];" parent="7sJPHcxp8LxkouLE9m6g-108" vertex="1" connectable="0">
          <mxGeometry x="-0.0482" y="-2" relative="1" as="geometry">
            <mxPoint x="4" y="-1" as="offset" />
          </mxGeometry>
        </mxCell>
      </root>
    </mxGraphModel>
  </diagram>
</mxfile>
